<svg xmlns="http://www.w3.org/2000/svg" width="1920" height="960" viewBox="0 0 1920 960" fill="none"><defs><filter id="drop" x="-30%" y="-30%" width="160%" height="160%"><feDropShadow dx="0" dy="28" stdDeviation="34" flood-color="#22406B" flood-opacity=".18"/></filter><radialGradient id="amb"><stop offset="0" stop-color="#00ADFF" stop-opacity=".26"/><stop offset=".55" stop-color="#00ADFF" stop-opacity=".09"/><stop offset="1" stop-color="#00ADFF" stop-opacity="0"/></radialGradient><clipPath id="v1"><rect x="420" y="74" width="1080" height="886" rx="30"/></clipPath><radialGradient id="p2-g"><stop offset="0" stop-color="#00ADFF" stop-opacity=".2"/><stop offset=".38" stop-color="#00ADFF" stop-opacity=".1"/><stop offset=".7" stop-color="#00ADFF" stop-opacity=".03"/><stop offset="1" stop-color="#00ADFF" stop-opacity="0"/></radialGradient><radialGradient id="p2-gc"><stop offset="0" stop-color="#00ADFF" stop-opacity=".26"/><stop offset=".45" stop-color="#00ADFF" stop-opacity=".12"/><stop offset="1" stop-color="#00ADFF" stop-opacity="0"/></radialGradient><clipPath id="p2-hero"><rect width="1440" height="820"/></clipPath><clipPath id="p2-c0"><rect x="143" y="980" width="364" height="380" rx="28"/></clipPath><clipPath id="p2-c1"><rect x="538" y="980" width="364" height="380" rx="28"/></clipPath><clipPath id="p2-c2"><rect x="933" y="980" width="364" height="380" rx="28"/></clipPath></defs><rect x="0" y="0" width="1920" height="960" rx="0" fill="#E9EFF6"/><ellipse cx="960" cy="640" rx="800" ry="430" fill="url(#amb)"/><g><g filter="url(#drop)"><rect x="420" y="74" width="1080" height="886" rx="30" fill="#FFFFFF"/></g><g clip-path="url(#v1)"><g transform="translate(420,74) scale(0.75)"><rect x="0" y="0" width="1440" height="1456" rx="0" fill="#FFFFFF"/><rect x="0" y="0" width="1440" height="820" rx="0" fill="#6A86A6"/><g clip-path="url(#p2-hero)"></g><rect x="48" y="28" width="1344" height="68" rx="34" fill="#FFFFFF" fill-opacity="0.12"/><rect x="80" y="48" width="208" height="28" rx="8" fill="#FFFFFF" fill-opacity="0.82"/><rect x="1230" y="44" width="130" height="36" rx="18" fill="#FFFFFF" fill-opacity="0.82"/><rect x="138" y="300" width="640" height="96" rx="12" fill="#FFFFFF" fill-opacity="0.92"/><rect x="138" y="416" width="392" height="96" rx="12" fill="#FFFFFF" fill-opacity="0.45"/><rect x="138" y="578" width="470" height="18" rx="9" fill="#FFFFFF" fill-opacity="0.38"/><rect x="138" y="656" width="268" height="64" rx="32" fill="#00ADFF"/><rect x="0" y="820" width="1440" height="64" rx="0" fill="#BAD5EC"/><rect x="48" y="844" width="320" height="16" rx="8" fill="#6A86A6" fill-opacity="0.45"/><rect x="1252" y="832" width="140" height="40" rx="20" fill="#6A86A6"/><rect x="143" y="980" width="364" height="380" rx="28" fill="#6A86A6"/><rect x="247" y="1056" width="156" height="118" rx="14" fill="#FFFFFF" fill-opacity="0.9"/><rect x="225" y="1214" width="200" height="24" rx="12" fill="#FFFFFF" fill-opacity="0.5"/><rect x="538" y="980" width="364" height="380" rx="28" fill="#6A86A6"/><rect x="642" y="1056" width="156" height="118" rx="14" fill="#FFFFFF" fill-opacity="0.9"/><rect x="620" y="1214" width="200" height="24" rx="12" fill="#FFFFFF" fill-opacity="0.5"/><rect x="933" y="980" width="364" height="380" rx="28" fill="#6A86A6"/><rect x="1037" y="1056" width="156" height="118" rx="14" fill="#FFFFFF" fill-opacity="0.9"/><rect x="1015" y="1214" width="200" height="24" rx="12" fill="#FFFFFF" fill-opacity="0.5"/></g></g><rect x="420.75" y="74.75" width="1078.5" height="884.5" rx="30" fill="none" stroke="#CFDDEB" stroke-opacity="0.9" stroke-width="1.5"/></g></svg>