<svg preserveAspectRatio="none" overflow="visible" style="display: block;" width="136.294" height="36.5072" viewBox="0 0 136.294 36.5072" fill="none" xmlns="http://www.w3.org/2000/svg">
<g id="Group-2">
<g id="Group">
<path id="Fill-1" fill-rule="evenodd" clip-rule="evenodd" d="M0 0V33.9975L33.9973 0H0Z" fill="#5A749B" fill-opacity="0.55"/>
<path id="Fill-2" fill-rule="evenodd" clip-rule="evenodd" d="M2.46142 36.5072H36.4587V2.50977L2.46142 36.5072Z" fill="#5A749B" fill-opacity="0.55"/>
</g>
<path id="Fill-3" fill-rule="evenodd" clip-rule="evenodd" d="M55.6667 17.4233C59.6196 17.4233 61.721 15.4875 61.721 11.8707V11.6663C61.721 7.79471 59.5193 6.26645 55.6667 6.26645H51.5636V17.4233H55.6667ZM43.5082 0H55.8667C64.5727 0 69.5265 3.92253 69.5265 11.6159V11.8191C69.5265 19.512 64.273 23.1804 56.1166 23.1804H51.5636V36.4259H43.5082V0Z" fill="#5A749B" fill-opacity="0.55"/>
<path id="Fill-5" fill-rule="evenodd" clip-rule="evenodd" d="M85.6613 30.1594C89.5396 30.1594 91.5035 28.4274 91.5035 25.1156V24.9124C91.5035 21.6515 89.5396 19.8686 85.465 19.8686H80.9483V30.1594H85.6613ZM85.956 36.4259H73.0939V0H95.9706V6.41928H80.9978L80.9483 14.0606H86.2012C94.3014 14.0606 99.1122 17.678 99.1122 24.9628V25.1671C99.1122 32.299 94.645 36.4259 85.956 36.4259Z" fill="#5A749B" fill-opacity="0.55"/>
<path id="Fill-8" fill-rule="evenodd" clip-rule="evenodd" d="M105.072 0.0508709H113.531V15.7203L126.583 0H135.563L120.788 17.2464L136.294 36.4259H126.426L113.531 20.0952V36.4259H105.072V0.0508709Z" fill="#5A749B" fill-opacity="0.55"/>
</g>
</svg>
